<mxfile host="app.diagrams.net" modified="2023-03-02T20:55:58.917Z" agent="5.0 (Windows NT 10.0; Win64; x64) AppleWebKit/537.36 (KHTML, like Gecko) Chrome/110.0.0.0 Safari/537.36" etag="jdxAXChQi5iluthLUUgz" version="20.8.11" type="github">
  <diagram name="Page-1" id="dmgHdSIxBXw5DcmxPQaa">
    <mxGraphModel dx="1105" dy="1651" grid="1" gridSize="10" guides="1" tooltips="1" connect="1" arrows="1" fold="1" page="1" pageScale="1" pageWidth="850" pageHeight="1100" math="0" shadow="0">
      <root>
        <mxCell id="0" />
        <mxCell id="1" parent="0" />
        <mxCell id="9tfqn4m647N9T7skgzmH-1" value="Website Back End" style="swimlane;whiteSpace=wrap;html=1;startSize=23;" parent="1" vertex="1">
          <mxGeometry x="245" y="20" width="210" height="200" as="geometry">
            <mxRectangle x="40" y="60" width="80" height="30" as="alternateBounds" />
          </mxGeometry>
        </mxCell>
        <mxCell id="f5pyTzky1vOdNz5_CN_u-18" style="edgeStyle=orthogonalEdgeStyle;rounded=0;orthogonalLoop=1;jettySize=auto;html=1;exitX=0.5;exitY=1;exitDx=0;exitDy=0;entryX=0.5;entryY=0;entryDx=0;entryDy=0;strokeColor=#000000;" edge="1" parent="9tfqn4m647N9T7skgzmH-1" source="9tfqn4m647N9T7skgzmH-19" target="f5pyTzky1vOdNz5_CN_u-16">
          <mxGeometry relative="1" as="geometry" />
        </mxCell>
        <mxCell id="9tfqn4m647N9T7skgzmH-19" value="User Connection / Website Hosting" style="rounded=1;whiteSpace=wrap;html=1;" parent="9tfqn4m647N9T7skgzmH-1" vertex="1">
          <mxGeometry x="17.5" y="35" width="175" height="30" as="geometry" />
        </mxCell>
        <mxCell id="f5pyTzky1vOdNz5_CN_u-14" style="edgeStyle=orthogonalEdgeStyle;rounded=0;orthogonalLoop=1;jettySize=auto;html=1;exitX=0.75;exitY=1;exitDx=0;exitDy=0;strokeColor=#000000;entryX=0.75;entryY=1;entryDx=0;entryDy=0;" edge="1" parent="9tfqn4m647N9T7skgzmH-1" source="9tfqn4m647N9T7skgzmH-19" target="9tfqn4m647N9T7skgzmH-19">
          <mxGeometry relative="1" as="geometry">
            <mxPoint x="148.94736842105272" y="125" as="targetPoint" />
          </mxGeometry>
        </mxCell>
        <mxCell id="f5pyTzky1vOdNz5_CN_u-16" value="Communicate between database and webpage" style="rounded=1;whiteSpace=wrap;html=1;" vertex="1" parent="9tfqn4m647N9T7skgzmH-1">
          <mxGeometry x="17.5" y="82.5" width="175" height="30" as="geometry" />
        </mxCell>
        <mxCell id="f5pyTzky1vOdNz5_CN_u-17" value="Internal APIs/Urls" style="rounded=1;whiteSpace=wrap;html=1;" vertex="1" parent="9tfqn4m647N9T7skgzmH-1">
          <mxGeometry x="17.5" y="120" width="175" height="30" as="geometry" />
        </mxCell>
        <mxCell id="f5pyTzky1vOdNz5_CN_u-19" value="Manage assets" style="rounded=1;whiteSpace=wrap;html=1;" vertex="1" parent="9tfqn4m647N9T7skgzmH-1">
          <mxGeometry x="17.5" y="160" width="175" height="30" as="geometry" />
        </mxCell>
        <mxCell id="9tfqn4m647N9T7skgzmH-3" value="&lt;p style=&quot;line-height: 120%;&quot;&gt;Database&lt;/p&gt;&lt;p style=&quot;line-height: 120%;&quot;&gt;&lt;br&gt;&lt;/p&gt;&lt;p style=&quot;line-height: 120%;&quot;&gt;&lt;br&gt;&lt;/p&gt;&lt;p style=&quot;line-height: 120%;&quot;&gt;&lt;br&gt;&lt;/p&gt;&lt;p style=&quot;line-height: 120%;&quot;&gt;&lt;br&gt;&lt;/p&gt;&lt;p style=&quot;line-height: 120%;&quot;&gt;&lt;br&gt;&lt;/p&gt;&lt;p style=&quot;line-height: 120%;&quot;&gt;&lt;br&gt;&lt;/p&gt;" style="shape=cylinder3;whiteSpace=wrap;html=1;boundedLbl=1;backgroundOutline=1;size=15;" parent="1" vertex="1">
          <mxGeometry x="920" y="15" width="210" height="215" as="geometry" />
        </mxCell>
        <mxCell id="9tfqn4m647N9T7skgzmH-47" style="edgeStyle=orthogonalEdgeStyle;rounded=0;orthogonalLoop=1;jettySize=auto;html=1;exitX=0.5;exitY=1;exitDx=0;exitDy=0;entryX=0.5;entryY=0;entryDx=0;entryDy=0;" parent="1" source="9tfqn4m647N9T7skgzmH-13" target="9tfqn4m647N9T7skgzmH-46" edge="1">
          <mxGeometry relative="1" as="geometry" />
        </mxCell>
        <mxCell id="9tfqn4m647N9T7skgzmH-13" value="Image Recognition Software" style="swimlane;whiteSpace=wrap;html=1;" parent="1" vertex="1">
          <mxGeometry x="720" y="15" width="160" height="125" as="geometry" />
        </mxCell>
        <mxCell id="9tfqn4m647N9T7skgzmH-44" style="edgeStyle=orthogonalEdgeStyle;rounded=0;orthogonalLoop=1;jettySize=auto;html=1;exitX=0.5;exitY=1;exitDx=0;exitDy=0;entryX=0.5;entryY=0;entryDx=0;entryDy=0;" parent="9tfqn4m647N9T7skgzmH-13" source="9tfqn4m647N9T7skgzmH-39" target="9tfqn4m647N9T7skgzmH-43" edge="1">
          <mxGeometry relative="1" as="geometry" />
        </mxCell>
        <mxCell id="9tfqn4m647N9T7skgzmH-39" value="Locate significant objects in frame" style="rounded=1;whiteSpace=wrap;html=1;" parent="9tfqn4m647N9T7skgzmH-13" vertex="1">
          <mxGeometry x="20" y="35" width="120" height="30" as="geometry" />
        </mxCell>
        <mxCell id="9tfqn4m647N9T7skgzmH-43" value="Track Coordinates" style="rounded=1;whiteSpace=wrap;html=1;" parent="9tfqn4m647N9T7skgzmH-13" vertex="1">
          <mxGeometry x="20" y="85" width="120" height="30" as="geometry" />
        </mxCell>
        <mxCell id="9tfqn4m647N9T7skgzmH-74" style="edgeStyle=orthogonalEdgeStyle;rounded=0;orthogonalLoop=1;jettySize=auto;html=1;exitX=0.25;exitY=1;exitDx=0;exitDy=0;entryX=0.5;entryY=0;entryDx=0;entryDy=0;" parent="1" source="9tfqn4m647N9T7skgzmH-18" target="9tfqn4m647N9T7skgzmH-55" edge="1">
          <mxGeometry relative="1" as="geometry" />
        </mxCell>
        <mxCell id="9tfqn4m647N9T7skgzmH-18" value="Data Analysis Software" style="swimlane;whiteSpace=wrap;html=1;" parent="1" vertex="1">
          <mxGeometry x="470" y="15" width="230" height="225" as="geometry" />
        </mxCell>
        <mxCell id="9tfqn4m647N9T7skgzmH-64" style="edgeStyle=orthogonalEdgeStyle;rounded=0;orthogonalLoop=1;jettySize=auto;html=1;exitX=0.5;exitY=1;exitDx=0;exitDy=0;entryX=0.5;entryY=0;entryDx=0;entryDy=0;" parent="9tfqn4m647N9T7skgzmH-18" source="9tfqn4m647N9T7skgzmH-52" target="9tfqn4m647N9T7skgzmH-53" edge="1">
          <mxGeometry relative="1" as="geometry" />
        </mxCell>
        <mxCell id="9tfqn4m647N9T7skgzmH-52" value="Determine statistics to output" style="rounded=1;whiteSpace=wrap;html=1;" parent="9tfqn4m647N9T7skgzmH-18" vertex="1">
          <mxGeometry x="10" y="35" width="210" height="30" as="geometry" />
        </mxCell>
        <mxCell id="9tfqn4m647N9T7skgzmH-65" style="edgeStyle=orthogonalEdgeStyle;rounded=0;orthogonalLoop=1;jettySize=auto;html=1;exitX=0.5;exitY=1;exitDx=0;exitDy=0;entryX=0.5;entryY=0;entryDx=0;entryDy=0;" parent="9tfqn4m647N9T7skgzmH-18" source="9tfqn4m647N9T7skgzmH-53" target="9tfqn4m647N9T7skgzmH-54" edge="1">
          <mxGeometry relative="1" as="geometry" />
        </mxCell>
        <mxCell id="9tfqn4m647N9T7skgzmH-53" value="Process imported data" style="rounded=1;whiteSpace=wrap;html=1;" parent="9tfqn4m647N9T7skgzmH-18" vertex="1">
          <mxGeometry x="10" y="85" width="210" height="30" as="geometry" />
        </mxCell>
        <mxCell id="9tfqn4m647N9T7skgzmH-71" style="edgeStyle=orthogonalEdgeStyle;rounded=0;orthogonalLoop=1;jettySize=auto;html=1;exitX=0.5;exitY=1;exitDx=0;exitDy=0;entryX=0.5;entryY=0;entryDx=0;entryDy=0;" parent="9tfqn4m647N9T7skgzmH-18" source="9tfqn4m647N9T7skgzmH-54" target="9tfqn4m647N9T7skgzmH-70" edge="1">
          <mxGeometry relative="1" as="geometry" />
        </mxCell>
        <mxCell id="9tfqn4m647N9T7skgzmH-54" value="Calculate statistics" style="rounded=1;whiteSpace=wrap;html=1;" parent="9tfqn4m647N9T7skgzmH-18" vertex="1">
          <mxGeometry x="10" y="135" width="210" height="30" as="geometry" />
        </mxCell>
        <mxCell id="9tfqn4m647N9T7skgzmH-70" value="Compare user w/ other players" style="rounded=1;whiteSpace=wrap;html=1;" parent="9tfqn4m647N9T7skgzmH-18" vertex="1">
          <mxGeometry x="10" y="185" width="210" height="30" as="geometry" />
        </mxCell>
        <mxCell id="f5pyTzky1vOdNz5_CN_u-10" style="edgeStyle=orthogonalEdgeStyle;rounded=0;orthogonalLoop=1;jettySize=auto;html=1;exitX=0.5;exitY=1;exitDx=0;exitDy=0;entryX=0.5;entryY=0;entryDx=0;entryDy=0;strokeColor=#000000;" edge="1" parent="1" source="9tfqn4m647N9T7skgzmH-33" target="f5pyTzky1vOdNz5_CN_u-9">
          <mxGeometry relative="1" as="geometry" />
        </mxCell>
        <mxCell id="9tfqn4m647N9T7skgzmH-33" value="Website Front End" style="swimlane;whiteSpace=wrap;html=1;startSize=23;" parent="1" vertex="1">
          <mxGeometry y="17.5" width="210" height="312.5" as="geometry">
            <mxRectangle x="40" y="60" width="80" height="30" as="alternateBounds" />
          </mxGeometry>
        </mxCell>
        <mxCell id="f5pyTzky1vOdNz5_CN_u-1" style="edgeStyle=orthogonalEdgeStyle;rounded=0;orthogonalLoop=1;jettySize=auto;html=1;exitX=0.5;exitY=1;exitDx=0;exitDy=0;entryX=0.5;entryY=0;entryDx=0;entryDy=0;strokeColor=#000000;" edge="1" parent="9tfqn4m647N9T7skgzmH-33" source="9tfqn4m647N9T7skgzmH-32" target="9tfqn4m647N9T7skgzmH-34">
          <mxGeometry relative="1" as="geometry" />
        </mxCell>
        <mxCell id="9tfqn4m647N9T7skgzmH-32" value="Website Design" style="rounded=1;whiteSpace=wrap;html=1;" parent="9tfqn4m647N9T7skgzmH-33" vertex="1">
          <mxGeometry x="10" y="35" width="190" height="30" as="geometry" />
        </mxCell>
        <mxCell id="9tfqn4m647N9T7skgzmH-34" value="Interactive Features" style="rounded=1;whiteSpace=wrap;html=1;" parent="9tfqn4m647N9T7skgzmH-33" vertex="1">
          <mxGeometry x="10" y="85" width="190" height="30" as="geometry" />
        </mxCell>
        <mxCell id="f5pyTzky1vOdNz5_CN_u-11" value="Pages" style="swimlane;whiteSpace=wrap;html=1;" vertex="1" parent="9tfqn4m647N9T7skgzmH-33">
          <mxGeometry x="10" y="127.5" width="190" height="178" as="geometry" />
        </mxCell>
        <mxCell id="9tfqn4m647N9T7skgzmH-25" value="User Analytics Dashboard" style="rounded=1;whiteSpace=wrap;html=1;" parent="f5pyTzky1vOdNz5_CN_u-11" vertex="1">
          <mxGeometry x="7.5" y="27.5" width="162.5" height="30" as="geometry" />
        </mxCell>
        <mxCell id="9tfqn4m647N9T7skgzmH-26" value="Video Analyzer" style="rounded=1;whiteSpace=wrap;html=1;" parent="f5pyTzky1vOdNz5_CN_u-11" vertex="1">
          <mxGeometry x="7.5" y="67.5" width="162.5" height="30" as="geometry" />
        </mxCell>
        <mxCell id="9tfqn4m647N9T7skgzmH-27" value="Tutorial Generator" style="rounded=1;whiteSpace=wrap;html=1;" parent="f5pyTzky1vOdNz5_CN_u-11" vertex="1">
          <mxGeometry x="7.5" y="107.5" width="162.5" height="30" as="geometry" />
        </mxCell>
        <mxCell id="f5pyTzky1vOdNz5_CN_u-12" value="Signup/Signin" style="rounded=1;whiteSpace=wrap;html=1;" vertex="1" parent="f5pyTzky1vOdNz5_CN_u-11">
          <mxGeometry x="7.5" y="142.5" width="175" height="30" as="geometry" />
        </mxCell>
        <mxCell id="9tfqn4m647N9T7skgzmH-42" style="edgeStyle=orthogonalEdgeStyle;rounded=0;orthogonalLoop=1;jettySize=auto;html=1;exitX=0.5;exitY=1;exitDx=0;exitDy=0;entryX=0.5;entryY=0;entryDx=0;entryDy=0;" parent="1" source="9tfqn4m647N9T7skgzmH-40" target="9tfqn4m647N9T7skgzmH-13" edge="1">
          <mxGeometry relative="1" as="geometry" />
        </mxCell>
        <mxCell id="9tfqn4m647N9T7skgzmH-40" value="Input MP4" style="ellipse;whiteSpace=wrap;html=1;" parent="1" vertex="1">
          <mxGeometry x="740" y="-40" width="120" height="40" as="geometry" />
        </mxCell>
        <mxCell id="9tfqn4m647N9T7skgzmH-49" style="edgeStyle=orthogonalEdgeStyle;rounded=0;orthogonalLoop=1;jettySize=auto;html=1;exitX=0.5;exitY=1;exitDx=0;exitDy=0;" parent="1" source="9tfqn4m647N9T7skgzmH-46" edge="1">
          <mxGeometry relative="1" as="geometry">
            <mxPoint x="660" y="-20.000000000000227" as="targetPoint" />
            <Array as="points">
              <mxPoint x="810" y="220" />
              <mxPoint x="710" y="220" />
              <mxPoint x="710" y="-20" />
            </Array>
          </mxGeometry>
        </mxCell>
        <mxCell id="9tfqn4m647N9T7skgzmH-46" value="Output tracked objects JSON" style="ellipse;whiteSpace=wrap;html=1;" parent="1" vertex="1">
          <mxGeometry x="740" y="160" width="120" height="40" as="geometry" />
        </mxCell>
        <mxCell id="9tfqn4m647N9T7skgzmH-48" style="edgeStyle=orthogonalEdgeStyle;rounded=0;orthogonalLoop=1;jettySize=auto;html=1;exitX=1;exitY=0.5;exitDx=0;exitDy=0;" parent="1" source="9tfqn4m647N9T7skgzmH-37" edge="1">
          <mxGeometry relative="1" as="geometry">
            <mxPoint x="570" y="15" as="targetPoint" />
            <Array as="points">
              <mxPoint x="570" y="-20" />
              <mxPoint x="570" y="15" />
            </Array>
          </mxGeometry>
        </mxCell>
        <mxCell id="9tfqn4m647N9T7skgzmH-63" style="edgeStyle=orthogonalEdgeStyle;rounded=0;orthogonalLoop=1;jettySize=auto;html=1;exitX=0.5;exitY=0;exitDx=0;exitDy=0;strokeColor=#00CCCC;" parent="1" source="9tfqn4m647N9T7skgzmH-37" target="9tfqn4m647N9T7skgzmH-57" edge="1">
          <mxGeometry relative="1" as="geometry">
            <Array as="points">
              <mxPoint x="510" y="-50" />
              <mxPoint x="975" y="-50" />
            </Array>
          </mxGeometry>
        </mxCell>
        <mxCell id="9tfqn4m647N9T7skgzmH-37" value="External API" style="rounded=1;whiteSpace=wrap;html=1;" parent="1" vertex="1">
          <mxGeometry x="470" y="-35" width="80" height="30" as="geometry" />
        </mxCell>
        <mxCell id="9tfqn4m647N9T7skgzmH-51" style="edgeStyle=orthogonalEdgeStyle;rounded=0;orthogonalLoop=1;jettySize=auto;html=1;exitX=0.5;exitY=1;exitDx=0;exitDy=0;entryX=0.657;entryY=0.007;entryDx=0;entryDy=0;entryPerimeter=0;" parent="1" source="9tfqn4m647N9T7skgzmH-50" target="9tfqn4m647N9T7skgzmH-18" edge="1">
          <mxGeometry relative="1" as="geometry" />
        </mxCell>
        <mxCell id="9tfqn4m647N9T7skgzmH-50" value="Recording Data" style="ellipse;whiteSpace=wrap;html=1;" parent="1" vertex="1">
          <mxGeometry x="580" y="-40" width="80" height="40" as="geometry" />
        </mxCell>
        <mxCell id="9tfqn4m647N9T7skgzmH-62" style="edgeStyle=orthogonalEdgeStyle;rounded=0;orthogonalLoop=1;jettySize=auto;html=1;exitX=0.5;exitY=1;exitDx=0;exitDy=0;entryX=0.5;entryY=0;entryDx=0;entryDy=0;entryPerimeter=0;strokeColor=#00CCCC;" parent="1" source="9tfqn4m647N9T7skgzmH-55" target="9tfqn4m647N9T7skgzmH-57" edge="1">
          <mxGeometry relative="1" as="geometry">
            <Array as="points">
              <mxPoint x="530" y="290" />
              <mxPoint x="530" y="300" />
              <mxPoint x="900" y="300" />
              <mxPoint x="900" y="70" />
              <mxPoint x="975" y="70" />
            </Array>
          </mxGeometry>
        </mxCell>
        <mxCell id="9tfqn4m647N9T7skgzmH-72" style="edgeStyle=orthogonalEdgeStyle;rounded=0;orthogonalLoop=1;jettySize=auto;html=1;exitX=1;exitY=0.5;exitDx=0;exitDy=0;entryX=0;entryY=0.5;entryDx=0;entryDy=0;" parent="1" source="9tfqn4m647N9T7skgzmH-55" target="9tfqn4m647N9T7skgzmH-68" edge="1">
          <mxGeometry relative="1" as="geometry" />
        </mxCell>
        <mxCell id="f5pyTzky1vOdNz5_CN_u-23" style="edgeStyle=orthogonalEdgeStyle;rounded=0;orthogonalLoop=1;jettySize=auto;html=1;entryX=1;entryY=0.5;entryDx=0;entryDy=0;strokeColor=#000000;" edge="1" parent="1" source="9tfqn4m647N9T7skgzmH-55" target="9tfqn4m647N9T7skgzmH-25">
          <mxGeometry relative="1" as="geometry">
            <Array as="points">
              <mxPoint x="240" y="275" />
              <mxPoint x="240" y="188" />
            </Array>
          </mxGeometry>
        </mxCell>
        <mxCell id="f5pyTzky1vOdNz5_CN_u-25" style="edgeStyle=orthogonalEdgeStyle;rounded=0;orthogonalLoop=1;jettySize=auto;html=1;entryX=1;entryY=0.5;entryDx=0;entryDy=0;strokeColor=#000000;" edge="1" parent="1" source="9tfqn4m647N9T7skgzmH-55" target="9tfqn4m647N9T7skgzmH-26">
          <mxGeometry relative="1" as="geometry">
            <Array as="points">
              <mxPoint x="240" y="275" />
              <mxPoint x="240" y="228" />
            </Array>
          </mxGeometry>
        </mxCell>
        <mxCell id="9tfqn4m647N9T7skgzmH-55" value="User stats" style="ellipse;whiteSpace=wrap;html=1;" parent="1" vertex="1">
          <mxGeometry x="470" y="260" width="110" height="30" as="geometry" />
        </mxCell>
        <mxCell id="9tfqn4m647N9T7skgzmH-77" style="edgeStyle=orthogonalEdgeStyle;rounded=0;orthogonalLoop=1;jettySize=auto;html=1;exitX=0.5;exitY=1;exitDx=0;exitDy=0;exitPerimeter=0;strokeColor=#7F00FF;" parent="1" source="9tfqn4m647N9T7skgzmH-57" target="9tfqn4m647N9T7skgzmH-75" edge="1">
          <mxGeometry relative="1" as="geometry">
            <Array as="points">
              <mxPoint x="975" y="310" />
              <mxPoint x="585" y="310" />
            </Array>
          </mxGeometry>
        </mxCell>
        <mxCell id="9tfqn4m647N9T7skgzmH-57" value="User Data" style="shape=cylinder3;whiteSpace=wrap;html=1;boundedLbl=1;backgroundOutline=1;size=15;" parent="1" vertex="1">
          <mxGeometry x="930" y="97.5" width="90" height="115" as="geometry" />
        </mxCell>
        <mxCell id="9tfqn4m647N9T7skgzmH-91" style="edgeStyle=orthogonalEdgeStyle;rounded=0;orthogonalLoop=1;jettySize=auto;html=1;exitX=0.5;exitY=1;exitDx=0;exitDy=0;exitPerimeter=0;entryX=0.75;entryY=1;entryDx=0;entryDy=0;strokeColor=#FF8000;" parent="1" source="9tfqn4m647N9T7skgzmH-58" target="9tfqn4m647N9T7skgzmH-70" edge="1">
          <mxGeometry relative="1" as="geometry" />
        </mxCell>
        <mxCell id="9tfqn4m647N9T7skgzmH-58" value="Global Data" style="shape=cylinder3;whiteSpace=wrap;html=1;boundedLbl=1;backgroundOutline=1;size=15;" parent="1" vertex="1">
          <mxGeometry x="1030" y="97.5" width="90" height="62.5" as="geometry" />
        </mxCell>
        <mxCell id="9tfqn4m647N9T7skgzmH-73" style="edgeStyle=orthogonalEdgeStyle;rounded=0;orthogonalLoop=1;jettySize=auto;html=1;exitX=1;exitY=0.5;exitDx=0;exitDy=0;entryX=0.5;entryY=0;entryDx=0;entryDy=0;entryPerimeter=0;strokeColor=#FF6666;" parent="1" source="9tfqn4m647N9T7skgzmH-68" target="9tfqn4m647N9T7skgzmH-58" edge="1">
          <mxGeometry relative="1" as="geometry">
            <Array as="points">
              <mxPoint x="700" y="270" />
              <mxPoint x="890" y="270" />
              <mxPoint x="890" y="-30" />
              <mxPoint x="1075" y="-30" />
            </Array>
          </mxGeometry>
        </mxCell>
        <mxCell id="9tfqn4m647N9T7skgzmH-68" value="Global stats" style="ellipse;whiteSpace=wrap;html=1;" parent="1" vertex="1">
          <mxGeometry x="600" y="260" width="100" height="30" as="geometry" />
        </mxCell>
        <mxCell id="9tfqn4m647N9T7skgzmH-89" style="edgeStyle=orthogonalEdgeStyle;rounded=0;orthogonalLoop=1;jettySize=auto;html=1;exitX=0.5;exitY=1;exitDx=0;exitDy=0;entryX=0.5;entryY=0;entryDx=0;entryDy=0;" parent="1" source="9tfqn4m647N9T7skgzmH-75" target="9tfqn4m647N9T7skgzmH-88" edge="1">
          <mxGeometry relative="1" as="geometry" />
        </mxCell>
        <mxCell id="9tfqn4m647N9T7skgzmH-75" value="Tutorial System" style="swimlane;whiteSpace=wrap;html=1;" parent="1" vertex="1">
          <mxGeometry x="470" y="330" width="230" height="170" as="geometry" />
        </mxCell>
        <mxCell id="9tfqn4m647N9T7skgzmH-83" value="Tutorial Collection&lt;br&gt;&lt;br&gt;&lt;br&gt;&lt;br&gt;" style="rounded=1;whiteSpace=wrap;html=1;" parent="9tfqn4m647N9T7skgzmH-75" vertex="1">
          <mxGeometry x="10" y="82.5" width="210" height="75" as="geometry" />
        </mxCell>
        <mxCell id="9tfqn4m647N9T7skgzmH-36" value="Tutorial Game" style="swimlane;whiteSpace=wrap;html=1;" parent="9tfqn4m647N9T7skgzmH-75" vertex="1">
          <mxGeometry x="120" y="110" width="90" height="40" as="geometry" />
        </mxCell>
        <mxCell id="9tfqn4m647N9T7skgzmH-78" value="Prioritize aspects to work on" style="rounded=1;whiteSpace=wrap;html=1;" parent="9tfqn4m647N9T7skgzmH-75" vertex="1">
          <mxGeometry x="10" y="30" width="210" height="30" as="geometry" />
        </mxCell>
        <mxCell id="9tfqn4m647N9T7skgzmH-82" value="Videos/Docs" style="rounded=1;whiteSpace=wrap;html=1;" parent="9tfqn4m647N9T7skgzmH-75" vertex="1">
          <mxGeometry x="30" y="110" width="80" height="40" as="geometry" />
        </mxCell>
        <mxCell id="9tfqn4m647N9T7skgzmH-86" style="edgeStyle=orthogonalEdgeStyle;rounded=0;orthogonalLoop=1;jettySize=auto;html=1;exitX=0.5;exitY=1;exitDx=0;exitDy=0;" parent="1" source="9tfqn4m647N9T7skgzmH-78" edge="1">
          <mxGeometry relative="1" as="geometry">
            <mxPoint x="585.5263157894738" y="410" as="targetPoint" />
          </mxGeometry>
        </mxCell>
        <mxCell id="9tfqn4m647N9T7skgzmH-90" style="edgeStyle=orthogonalEdgeStyle;rounded=0;orthogonalLoop=1;jettySize=auto;html=1;exitX=0.5;exitY=1;exitDx=0;exitDy=0;entryX=0.5;entryY=0;entryDx=0;entryDy=0;entryPerimeter=0;strokeColor=#00CCCC;" parent="1" source="9tfqn4m647N9T7skgzmH-88" target="9tfqn4m647N9T7skgzmH-57" edge="1">
          <mxGeometry relative="1" as="geometry">
            <Array as="points">
              <mxPoint x="585" y="570" />
              <mxPoint x="910" y="570" />
              <mxPoint x="910" y="80" />
              <mxPoint x="975" y="80" />
            </Array>
          </mxGeometry>
        </mxCell>
        <mxCell id="f5pyTzky1vOdNz5_CN_u-21" style="edgeStyle=orthogonalEdgeStyle;rounded=0;orthogonalLoop=1;jettySize=auto;html=1;exitX=0;exitY=0.5;exitDx=0;exitDy=0;entryX=1;entryY=0.5;entryDx=0;entryDy=0;strokeColor=#000000;" edge="1" parent="1" source="9tfqn4m647N9T7skgzmH-88" target="9tfqn4m647N9T7skgzmH-27">
          <mxGeometry relative="1" as="geometry" />
        </mxCell>
        <mxCell id="9tfqn4m647N9T7skgzmH-88" value="Plans/Routines" style="ellipse;whiteSpace=wrap;html=1;" parent="1" vertex="1">
          <mxGeometry x="530" y="520" width="110" height="30" as="geometry" />
        </mxCell>
        <mxCell id="f5pyTzky1vOdNz5_CN_u-4" style="edgeStyle=orthogonalEdgeStyle;rounded=0;orthogonalLoop=1;jettySize=auto;html=1;exitX=0.5;exitY=1;exitDx=0;exitDy=0;entryX=0.5;entryY=0;entryDx=0;entryDy=0;strokeColor=#000000;" edge="1" parent="1" source="f5pyTzky1vOdNz5_CN_u-2" target="9tfqn4m647N9T7skgzmH-1">
          <mxGeometry relative="1" as="geometry" />
        </mxCell>
        <mxCell id="f5pyTzky1vOdNz5_CN_u-2" value="User Events" style="ellipse;whiteSpace=wrap;html=1;" vertex="1" parent="1">
          <mxGeometry x="310" y="-40" width="80" height="40" as="geometry" />
        </mxCell>
        <mxCell id="f5pyTzky1vOdNz5_CN_u-6" style="edgeStyle=orthogonalEdgeStyle;rounded=0;orthogonalLoop=1;jettySize=auto;html=1;exitX=0.5;exitY=1;exitDx=0;exitDy=0;entryX=0.5;entryY=0;entryDx=0;entryDy=0;strokeColor=#000000;" edge="1" parent="1" source="f5pyTzky1vOdNz5_CN_u-5" target="9tfqn4m647N9T7skgzmH-33">
          <mxGeometry relative="1" as="geometry" />
        </mxCell>
        <mxCell id="f5pyTzky1vOdNz5_CN_u-5" value="Page Loads" style="ellipse;whiteSpace=wrap;html=1;" vertex="1" parent="1">
          <mxGeometry x="45" y="-40" width="120" height="40" as="geometry" />
        </mxCell>
        <mxCell id="f5pyTzky1vOdNz5_CN_u-7" style="edgeStyle=orthogonalEdgeStyle;rounded=0;orthogonalLoop=1;jettySize=auto;html=1;exitX=1;exitY=0.5;exitDx=0;exitDy=0;entryX=0.5;entryY=0;entryDx=0;entryDy=0;strokeColor=#000000;" edge="1" parent="1" source="9tfqn4m647N9T7skgzmH-34" target="f5pyTzky1vOdNz5_CN_u-2">
          <mxGeometry relative="1" as="geometry">
            <Array as="points">
              <mxPoint x="230" y="115" />
              <mxPoint x="230" y="-60" />
              <mxPoint x="350" y="-60" />
            </Array>
          </mxGeometry>
        </mxCell>
        <mxCell id="f5pyTzky1vOdNz5_CN_u-9" value="User Experience&lt;br&gt;AKA Final Product" style="ellipse;whiteSpace=wrap;html=1;labelBackgroundColor=none;" vertex="1" parent="1">
          <mxGeometry x="37.5" y="350" width="135" height="40" as="geometry" />
        </mxCell>
        <mxCell id="f5pyTzky1vOdNz5_CN_u-13" style="edgeStyle=orthogonalEdgeStyle;rounded=0;orthogonalLoop=1;jettySize=auto;html=1;exitX=1;exitY=0.25;exitDx=0;exitDy=0;entryX=0.5;entryY=0;entryDx=0;entryDy=0;strokeColor=#000000;" edge="1" parent="1" source="f5pyTzky1vOdNz5_CN_u-11" target="f5pyTzky1vOdNz5_CN_u-2">
          <mxGeometry relative="1" as="geometry">
            <Array as="points">
              <mxPoint x="230" y="191" />
              <mxPoint x="230" y="-60" />
              <mxPoint x="350" y="-60" />
            </Array>
          </mxGeometry>
        </mxCell>
      </root>
    </mxGraphModel>
  </diagram>
</mxfile>
